Coordinates
version=1
nRows=6
nColumns=36
inDegrees=yes

Units are S.I. units (second, meters, Newtons, ...)
If the header above contains a line with 'inDegrees', this indicates whether rotational values are in degrees (yes) or radians (no).

endheader
time	pelvis_tilt	pelvis_list	pelvis_rotation	pelvis_tx	pelvis_ty	pelvis_tz	hip_flexion_r	hip_adduction_r	hip_rotation_r	knee_angle_r	knee_angle_r_beta	ankle_angle_r	subtalar_angle_r	mtp_angle_r	hip_flexion_l	hip_adduction_l	hip_rotation_l	knee_angle_l	knee_angle_l_beta	ankle_angle_l	subtalar_angle_l	mtp_angle_l	lumbar_extension	lumbar_bending	lumbar_rotation	arm_flex_r	arm_add_r	arm_rot_r	elbow_flex_r	pro_sup_r	arm_flex_l	arm_add_l	arm_rot_l	elbow_flex_l	pro_sup_l
      2.16666670	     -4.11369329	     -0.25849375	      4.62630165	      0.38006651	      0.93791946	     -0.04161733	      0.25492522	     -5.28274355	    -11.42776570	      1.96452821	      0.03428749	     -1.43541053	    -13.25928853	     -7.49999987	      1.74298481	     -3.66446168	     -1.15105194	      0.90462519	      0.01578869	     -0.22112159	     -6.74353610	     -7.49999987	      3.77140017	     -3.01787032	      1.14444764	    152.15562711	    -18.21527439	     53.45263639	     25.84801630	     70.26378755	     85.61530857	      2.43176632	    -18.15591892	     15.36985851	     66.36092602
      2.18333330	     -4.08314077	     -0.27586106	      4.64354880	      0.38015310	      0.93476066	     -0.04170441	      0.20888769	     -5.26005906	    -11.45321392	      1.95951653	      0.03420002	     -1.64801546	    -13.47388645	     -7.49999987	      1.70716400	     -3.67604747	     -1.09537846	      0.90592708	      0.01581141	     -0.21348224	     -6.75528679	     -7.49999987	      3.57535898	     -3.01973406	      1.43575124	    154.09176802	    -17.64760768	     57.24940444	     24.26870016	     72.87474203	     86.18411380	      2.16210328	    -12.16331850	     14.74945892	     67.65640226
      2.20000000	     -4.07211037	     -0.27084869	      4.63852093	      0.38013602	      0.93772322	     -0.04170825	      0.19892678	     -5.27212667	    -11.64739587	      1.94406890	      0.03393040	     -1.62508409	    -13.18822959	     -7.49999987	      1.66856938	     -3.69142428	     -1.22085402	      0.89644673	      0.01564595	     -0.26549077	     -6.72801119	     -7.49999987	      3.60965719	     -3.11362096	      1.12900788	    154.66731960	    -17.24237400	     58.35284075	     24.29736860	     72.21267063	     86.57887174	      1.68061965	     -8.66603042	     14.30254308	     67.56960060
      2.21666670	     -4.09622227	     -0.26955278	      4.60951875	      0.38028620	      0.93751254	     -0.04165351	      0.24355750	     -5.26367803	    -11.62860568	      1.88293218	      0.03286337	     -1.71274651	    -13.26646773	     -7.49999987	      1.68182848	     -3.70325957	     -1.36374029	      0.90674239	      0.01582564	     -0.30350947	     -6.74815115	     -7.49999987	      3.68015855	     -3.18491439	      0.94831703	    155.12653461	    -16.84240035	     58.70588796	     24.54351483	     72.37509652	     86.92942652	      1.44402909	     -6.73689232	     14.06947141	     68.25660167
      2.23333330	     -4.07285896	     -0.28778319	      4.59513754	      0.38017237	      0.93727442	     -0.04174987	      0.26236788	     -5.21348937	    -11.53575895	      1.87032338	      0.03264330	     -1.74941376	    -13.39779941	     -7.49999987	      1.63705955	     -3.73981896	     -1.46458020	      0.91756686	      0.01601456	     -0.44613462	     -6.70315584	     -7.49999987	      3.61310108	     -3.16577520	      0.73183818	    155.51629434	    -16.67679384	     58.91123259	     24.78908582	     71.80694113	     87.52346190	      1.42294838	     -6.59678611	     13.42913708	     67.02959034
      2.25000000	     -4.07655076	     -0.30367510	      4.57411371	      0.38032479	      0.93719165	     -0.04172290	      0.31954292	     -5.17280256	    -11.57900209	      1.88132375	      0.03283529	     -1.91558865	    -13.43995291	     -7.49999987	      1.62453146	     -3.76280170	     -1.51802474	      0.93485266	      0.01631626	     -0.45986890	     -6.70904970	     -7.49999987	      3.65928275	     -3.14743326	      0.62587284	    155.98326169	    -16.27834418	     59.08939033	     24.43504785	     72.52202627	     87.92629565	      1.23754684	     -5.59683095	     12.72164668	     67.75792302
